<svg fill="none"
     xmlns="http://www.w3.org/2000/svg">
    <defs>
        <symbol id="user" viewBox="0 0 25 25" fill="none">
            <g clip-path="url(#clip0_2_259)">
                <path d="M12.5804 12.1504C14.7895 12.1504 16.5804 10.3595 16.5804 8.15039C16.5804 5.94125 14.7895 4.15039 12.5804 4.15039C10.3712 4.15039 8.58035 5.94125 8.58035 8.15039C8.58035 10.3595 10.3712 12.1504 12.5804 12.1504Z"
                      fill="currentColor"/>
                <path d="M12.5804 14.1504C9.91035 14.1504 4.58035 15.4904 4.58035 18.1504V20.1504H20.5804V18.1504C20.5804 15.4904 15.2504 14.1504 12.5804 14.1504Z"
                      fill="currentColor"/>
            </g>
            <defs>
                <clipPath id="clip0_2_259">
                    <rect width="24" height="24" fill="currentColor"
                          transform="translate(0.580353 0.150391)"/>
                </clipPath>
            </defs>
        </symbol>
        <symbol id="calendar" viewBox="0 0 25 25" fill="none">
            <g clip-path="url(#clip0_2_241)">
                <path d="M18.3092 5.0918H17.6092H16.2092H9.20917H7.80917H7.10917C6.33917 5.0918 5.70917 5.7218 5.70917 6.4918V17.6918C5.70917 18.4618 6.33917 19.0918 7.10917 19.0918H18.3092C19.0792 19.0918 19.7092 18.4618 19.7092 17.6918V6.4918C19.7092 5.7218 19.0792 5.0918 18.3092 5.0918ZM18.3092 17.6918H7.10917V8.5918H18.3092V17.6918Z"
                      fill="currentColor"/>
            </g>
            <defs>
                <clipPath id="clip0_2_241">
                    <rect width="24" height="24" fill="currentColor"
                          transform="translate(0.709167 0.0917969)"/>
                </clipPath>
            </defs>
        </symbol>
        <symbol id="cart" viewBox="0 0 18 17" fill="none">
            <path d="M0.644531 0.822266H3.10856C3.50931 0.822266 3.85471 1.9445 3.93484 2.38205L4.28361 3.65014M4.28361 3.65014L6.15264 11.5127C6.23919 11.8768 6.56445 12.1338 6.9387 12.1338H14.4871C14.8892 12.1338 15.2301 11.8381 15.287 11.4401L16.2681 4.57237C16.3376 4.08562 15.9599 3.65014 15.4682 3.65014H4.28361Z"
                  stroke="currentColor" stroke-width="1.61593"/>
            <circle cx="13.168" cy="15.7696" r="1.21195" fill="currentColor"/>
            <circle cx="8.32016" cy="15.7696" r="1.21195" fill="currentColor"/>
        </symbol>
        <symbol id="cloud" viewBox="0 0 18 17" fill="none">
            <g clip-path="url(#clip0_2_267)">
                <path d="M15.0929 8.12766C14.5829 5.54016 12.3104 3.59766 9.58035 3.59766C7.41285 3.59766 5.53035 4.82766 4.59285 6.62766C2.33535 6.86766 0.580353 8.78016 0.580353 11.0977C0.580353 13.5802 2.59785 15.5977 5.08035 15.5977H14.8304C16.9004 15.5977 18.5804 13.9177 18.5804 11.8477C18.5804 9.86766 17.0429 8.26266 15.0929 8.12766Z"
                      fill="currentColor"/>
            </g>
            <defs>
                <clipPath id="clip0_2_267">
                    <rect width="18" height="18" fill="currentColor"
                          transform="translate(0.580353 0.597656)"/>
                </clipPath>
            </defs>
        </symbol>
        <symbol id="steam" viewBox="0 0 19 17" fill="none">
            <path d="M16.2619 4.87766C16.2619 5.578 16.0089 6.17733 15.5031 6.67564C14.9972 7.17396 14.3789 7.42312 13.6483 7.42312C12.9176 7.42312 12.2923 7.17396 11.7724 6.67564C11.2525 6.17733 10.9925 5.578 10.9925 4.87766C10.9925 4.17733 11.2525 3.578 11.7724 3.07968C12.2923 2.58137 12.9176 2.33221 13.6483 2.33221C14.3789 2.33221 14.9972 2.58137 15.5031 3.07968C16.0089 3.578 16.2619 4.17733 16.2619 4.87766ZM0.580353 12.9585V8.51403L3.3204 9.56453C3.88246 9.2413 4.51478 9.07968 5.21735 9.07968H5.59675L8.67403 4.83726C8.67403 3.54433 9.15881 2.43995 10.1284 1.52413C11.0979 0.608303 12.2572 0.150391 13.6061 0.150391C14.9832 0.150391 16.1565 0.615037 17.126 1.54433C18.0956 2.47362 18.5804 3.59147 18.5804 4.89787C18.5804 6.20426 18.0956 7.32211 17.126 8.2514C16.1565 9.18069 14.9832 9.64534 13.6061 9.64534L8.8848 12.9585C8.80049 13.8743 8.40705 14.6352 7.70447 15.2413C7.0019 15.8474 6.17286 16.1504 5.21735 16.1504C4.31806 16.1504 3.53117 15.8878 2.8567 15.3625C2.18223 14.8373 1.76068 14.1706 1.59206 13.3625L0.580353 12.9585ZM13.6272 1.68574C12.7138 1.68574 11.934 2.00224 11.2876 2.63524C10.6412 3.26824 10.3181 4.02244 10.3181 4.89787C10.3181 5.77329 10.6412 6.52076 11.2876 7.14029C11.934 7.75982 12.7138 8.06958 13.6272 8.06958C14.5405 8.06958 15.3204 7.75982 15.9668 7.14029C16.6131 6.52076 16.9363 5.77329 16.9363 4.89787C16.9363 4.02244 16.6131 3.26824 15.9668 2.63524C15.3204 2.00224 14.5405 1.68574 13.6272 1.68574ZM5.21735 10.009C5.02063 10.009 4.82391 10.0359 4.62719 10.0898L5.76536 10.4938C6.29932 10.7093 6.68574 11.0797 6.92461 11.6049C7.16349 12.1302 7.17052 12.6622 6.94569 13.2009C6.72087 13.7396 6.33445 14.1167 5.78644 14.3322C5.23843 14.5477 4.6834 14.5612 4.12134 14.3726C3.95272 14.2918 3.72087 14.1908 3.42579 14.0696C3.1307 13.9484 2.92696 13.8743 2.81454 13.8474C3.3204 14.7632 4.12134 15.2211 5.21735 15.2211C5.94803 15.2211 6.58035 14.9652 7.11431 14.4534C7.64827 13.9416 7.91525 13.3288 7.91525 12.615C7.91525 11.9012 7.64827 11.2884 7.11431 10.7767C6.58035 10.2649 5.94803 10.009 5.21735 10.009Z"
                  fill="currentColor"/>
        </symbol>
        <symbol id="settings" viewBox="0 0 25 25" fill="none">
            <g clip-path="url(#clip0_2_283)">
                <path d="M18.6541 13.5744C18.6882 13.3192 18.7052 13.0555 18.7052 12.7748C18.7052 12.5026 18.6882 12.2304 18.6456 11.9752L20.3725 10.6311C20.5256 10.512 20.5682 10.2823 20.4746 10.1122L18.8413 7.28791C18.7392 7.10076 18.5265 7.04122 18.3394 7.10076L16.3063 7.91742C15.8809 7.59416 15.4301 7.32194 14.9282 7.11778L14.6219 4.95705C14.5879 4.75289 14.4178 4.60828 14.2136 4.60828H10.947C10.7428 4.60828 10.5812 4.75289 10.5472 4.95705L10.2409 7.11778C9.73903 7.32194 9.27966 7.60266 8.86283 7.91742L6.82971 7.10076C6.64256 7.03271 6.42989 7.10076 6.32781 7.28791L4.70301 10.1122C4.60093 10.2908 4.63496 10.512 4.80509 10.6311L6.53197 11.9752C6.48944 12.2304 6.45541 12.5111 6.45541 12.7748C6.45541 13.0385 6.47242 13.3192 6.51496 13.5744L4.78808 14.9185C4.63496 15.0376 4.59242 15.2673 4.686 15.4374L6.3193 18.2617C6.42138 18.4488 6.63405 18.5084 6.8212 18.4488L8.85432 17.6322C9.27966 17.9554 9.73052 18.2276 10.2324 18.4318L10.5387 20.5925C10.5812 20.7967 10.7428 20.9413 10.947 20.9413H14.2136C14.4178 20.9413 14.5879 20.7967 14.6134 20.5925L14.9197 18.4318C15.4216 18.2276 15.8809 17.9554 16.2978 17.6322L18.3309 18.4488C18.518 18.5169 18.7307 18.4488 18.8328 18.2617L20.4661 15.4374C20.5682 15.2503 20.5256 15.0376 20.364 14.9185L18.6541 13.5744ZM12.5803 15.8372C10.896 15.8372 9.51785 14.4591 9.51785 12.7748C9.51785 11.0904 10.896 9.71235 12.5803 9.71235C14.2646 9.71235 15.6427 11.0904 15.6427 12.7748C15.6427 14.4591 14.2646 15.8372 12.5803 15.8372Z"
                      fill="currentColor"/>
            </g>
            <defs>
                <clipPath id="clip0_2_283">
                    <rect width="24" height="24" fill="currentColor"
                          transform="translate(0.580322 0.774414)"/>
                </clipPath>
            </defs>
        </symbol>
        <symbol id="pay" viewBox="0 0 21 12" fill="none">
            <g clip-path="url(#clip0_2_307)">
                <path fill-rule="evenodd" clip-rule="evenodd"
                      d="M0.511169 1.25213C0.511169 0.779861 0.893993 0.397012 1.36629 0.397012V0.396484H3.33342C3.92634 0.396484 4.43166 0.498979 4.84878 0.703968C5.26617 0.908958 5.57735 1.19082 5.78239 1.54955C5.99455 1.90828 6.10077 2.31461 6.10077 2.7685C6.10077 3.17848 6.00193 3.56283 5.80436 3.92156C5.61389 4.2803 5.3101 4.56945 4.8928 4.78907C4.48279 5.00875 3.96315 5.11854 3.33342 5.11854H2.04858V7.38288C2.04858 7.80745 1.70438 8.15158 1.27979 8.15158C0.855377 8.15158 0.511169 7.80745 0.511169 7.38288V1.25213ZM3.26762 3.87766C3.69221 3.87766 4.0069 3.78246 4.21186 3.59215C4.4169 3.39446 4.51934 3.11994 4.51934 2.7685C4.51934 2.02177 4.10222 1.64839 3.26762 1.64839H2.04858V3.87766H3.26762Z"
                      fill="currentColor"/>
                <path fill-rule="evenodd" clip-rule="evenodd"
                      d="M6.86603 4.96934C6.86603 4.35437 6.98682 3.80896 7.22842 3.33309C7.4773 2.85722 7.81044 2.49118 8.22774 2.23494C8.65233 1.9787 9.12453 1.85059 9.64435 1.85059C10.0982 1.85059 10.4935 1.9421 10.8304 2.12512C11.1744 2.30815 11.4605 2.53876 11.6655 2.81696V2.70931C11.6655 2.28473 12.0097 1.9406 12.4343 1.9406C12.8587 1.9406 13.2029 2.28473 13.2029 2.70931V7.38187C13.2029 7.80645 12.8587 8.15058 12.4341 8.15058C12.0097 8.15058 11.6655 7.80645 11.6655 7.38187V7.14368C11.4678 7.4292 11.1818 7.66713 10.8304 7.85748C10.4862 8.0405 10.0872 8.13202 9.63337 8.13202C9.12084 8.13202 8.65233 8.00024 8.22774 7.73669C7.81044 7.47313 7.4773 7.10342 7.22842 6.62755C6.98682 6.14436 6.86603 5.59162 6.86603 4.96934ZM11.4343 4.0359C11.5807 4.29946 11.6539 4.61792 11.6539 4.99129C11.6539 5.36467 11.5807 5.68679 11.4343 5.95767C11.2878 6.22123 11.0901 6.42621 10.8413 6.57263C10.5924 6.71173 10.3251 6.78128 10.0396 6.78128C9.76137 6.78128 9.49781 6.70807 9.24893 6.56165C9.00734 6.41523 8.80967 6.20658 8.65593 5.93571C8.50947 5.6575 8.4363 5.33538 8.4363 4.96933C8.4363 4.60328 8.50947 4.28848 8.65593 4.02492C8.80967 3.75404 9.00734 3.54905 9.24893 3.40995C9.49052 3.27085 9.75408 3.20131 10.0396 3.20131C10.3251 3.20131 10.5924 3.27451 10.8413 3.42094C11.0901 3.56003 11.2878 3.76502 11.4343 4.0359Z"
                      fill="currentColor"/>
                <path d="M19.5378 1.98584C19.1406 1.83575 18.6969 1.98656 18.5469 2.38371L17.2264 6.22778L15.8164 2.42542C15.6667 2.02811 15.2229 1.82757 14.8251 1.97742C14.4274 2.12722 14.2264 2.57075 14.376 2.96807L16.3698 7.90796L15.4982 9.95199C15.3406 10.3462 15.5305 10.7881 15.9071 10.9387C16.2836 11.0892 16.7167 10.8917 16.8742 10.4975L19.9538 2.92469C20.1039 2.52754 19.9348 2.13588 19.5378 1.98584Z"
                      fill="currentColor"/>
            </g>
            <defs>
                <clipPath id="clip0_2_307">
                    <rect width="20" height="11" fill="currentColor"
                          transform="translate(0.128845 0.320312)"/>
                </clipPath>
            </defs>
        </symbol>
        <symbol id="robo-face" viewBox="0 0 15 13" fill="none">
            <path fill-rule="evenodd" clip-rule="evenodd"
                  d="M13.9035 4.53375H13.9458C14.2962 4.53375 14.5802 4.81966 14.5802 5.17236V8.06736C14.5802 8.42005 14.2962 8.70597 13.9458 8.70597H13.9035V9.81288C13.9035 11.3412 12.6726 12.5802 11.1542 12.5802H4.00618C2.48782 12.5802 1.25694 11.3412 1.25694 9.81288V8.70597H1.21464C0.864248 8.70597 0.5802 8.42005 0.5802 8.06736V5.17236C0.5802 4.81966 0.864248 4.53375 1.21464 4.53375H1.25694V3.25654C1.25694 1.72821 2.48782 0.489258 4.00618 0.489258H11.1542C12.6726 0.489258 13.9035 1.72821 13.9035 3.25654V4.53375ZM6.96887 6.19168L4.59786 3.81062L3.8811 4.53375L5.48654 6.19412L3.87929 7.85376L4.60203 8.57956L6.96887 6.19168ZM8.19349 6.19168L10.5645 3.81062L11.2813 4.53375L9.67582 6.19412L11.2831 7.85376L10.5603 8.57956L8.19349 6.19168Z"
                  fill="currentColor"/>
        </symbol>
        <symbol id="dollar" viewBox="0 0 9 16" fill="none">
            <path d="M8.52971 12.3975C8.83304 11.8636 8.9847 11.2934 8.9847 10.6867C8.9847 9.88589 8.80877 9.26102 8.4569 8.81209C8.10504 8.35102 7.6743 8.01735 7.1647 7.81109C6.6551 7.59269 5.99384 7.38642 5.1809 7.19229L3.9979 6.88289C3.4519 6.71302 3.02724 6.48855 2.7239 6.20948C2.4327 5.93042 2.2871 5.54215 2.2871 5.04468C2.2871 4.51082 2.43877 4.08615 2.7421 3.77069C3.05757 3.45522 3.46333 3.26919 3.9979 3.18004C4.45467 3.10387 4.73939 3.12143 5.1809 3.26109C5.62486 3.40152 5.89857 3.52507 6.2001 3.87988C6.4763 4.20489 6.6005 4.50475 6.6369 4.88089H8.8573C8.77237 3.87382 8.4023 3.08515 7.7471 2.51488C7.10404 1.93248 6.24864 1.59275 5.1809 1.49568V0.0214844H3.9979V1.49568C2.85737 1.60488 1.93524 1.99315 1.2315 2.66048C0.52777 3.31568 0.175903 4.14682 0.175903 5.15388C0.175903 5.95469 0.351837 6.58562 0.703703 7.04668C1.0677 7.50775 1.5045 7.84749 2.0141 8.06589C2.5237 8.27215 3.18497 8.47842 3.9979 8.68468L5.1809 8.99409C5.7269 9.16395 6.1455 9.38842 6.4367 9.66749C6.74004 9.93442 6.8917 10.3106 6.8917 10.7959C6.8917 11.2812 6.74004 11.6998 6.4367 12.0517C6.13337 12.3914 5.71477 12.6038 5.1809 12.6887C4.80368 12.7836 4.23506 12.7282 3.9979 12.6887C3.50044 12.6038 3.11824 12.4096 2.8513 12.1063C2.58437 11.7908 2.4327 11.3965 2.3963 10.9233H0.175903C0.175903 11.9182 0.52777 12.719 1.2315 13.3257C1.93524 13.9324 2.85737 14.2903 3.9979 14.3995V15.8737H5.1809V14.3995C5.96957 14.3267 6.64904 14.1083 7.2193 13.7443C7.8017 13.3803 8.2385 12.9314 8.52971 12.3975Z"
                  fill="currentColor"/>
        </symbol>
        <symbol id="eject" viewBox="0 0 25 25" fill="none">
            <g clip-path="url(#clip0_2_213)">
                <path d="M5.90527 17.6984H19.9053V19.6984H5.90527V17.6984ZM12.9053 5.69843L6.23527 15.6984H19.5753L12.9053 5.69843Z"
                      fill="currentColor"/>
            </g>
            <defs>
                <clipPath id="clip0_2_213">
                    <rect width="24" height="24" fill="currentColor"
                          transform="translate(0.905273 0.698425)"/>
                </clipPath>
            </defs>
        </symbol>
        <symbol id="bitcoin" viewBox="0 0 15 19" fill="none">
            <path fill-rule="evenodd" clip-rule="evenodd"
                  d="M13.5255 6.16996C13.3219 4.20429 11.4946 3.54554 9.18553 3.35766V0.629883H7.39862V3.28486C6.9295 3.28486 6.44891 3.29306 5.97218 3.30247V0.629883H4.18537L4.18415 3.3553L4.16486 3.35566C3.78449 3.36259 3.41031 3.3694 3.04599 3.3694V3.36117L0.581297 3.36V5.1331C0.581297 5.1331 1.90153 5.10962 1.87878 5.13195C2.60337 5.13195 2.83864 5.52179 2.90688 5.85878V8.96585C2.95744 8.96585 3.02192 8.96818 3.09534 8.97759H2.90688L2.90566 13.3305C2.87398 13.5419 2.73994 13.8789 2.23417 13.8801C2.25692 13.8989 0.93547 13.8801 0.93547 13.8801L0.580078 15.8622H2.90688C3.16916 15.8622 3.4291 15.8648 3.6862 15.8674C3.85323 15.869 4.01874 15.8707 4.18283 15.8716L4.18415 18.6299H5.96964V15.9009C6.45907 15.9103 6.93326 15.9138 7.3974 15.9138L7.39608 18.6299H9.18299V15.8774C12.1876 15.7178 14.2931 15.0144 14.5536 12.3935C14.7648 10.2834 13.6963 9.34042 11.9903 8.95998C13.0285 8.47149 13.6773 7.60843 13.5255 6.16996ZM6.22877 8.56978L6.31031 8.57096C7.53377 8.5889 10.1921 8.62787 10.1921 6.91106C10.1932 5.15394 7.63165 5.21689 6.37936 5.24768C6.23821 5.25114 6.11373 5.25419 6.01137 5.25419V8.56792C6.07555 8.56784 6.14845 8.56867 6.22877 8.56978ZM6.20623 13.8956L6.356 13.8976C7.81818 13.9171 11.0241 13.96 11.0241 12.0672C11.0241 10.1372 7.95872 10.2011 6.45571 10.2324C6.28523 10.236 6.13485 10.2391 6.01137 10.2389V13.8943C6.07037 13.8943 6.13556 13.8948 6.20623 13.8956Z"
                  fill="currentColor"/>
        </symbol>
    </defs>
</svg>
